<?xml version="1.0" encoding="utf-8"?>
<!-- Generator: Adobe Illustrator 25.2.0, SVG Export Plug-In . SVG Version: 6.00 Build 0)  -->
<svg version="1.1" id="Layer_1" xmlns="http://www.w3.org/2000/svg" xmlns:xlink="http://www.w3.org/1999/xlink" x="0px" y="0px"
	 viewBox="0 0 32.31 31.97" style="enable-background:new 0 0 32.31 31.97;" xml:space="preserve">
<style type="text/css">
	.st0{display:none;}
	.st1{display:inline;}
	.st2{fill:#FFFFFF;}
</style>
<g class="st0">
	<path class="st1" d="M20.73,0.4C14.58,0.4,9.6,5.38,9.6,11.53s4.98,11.13,11.13,11.13s11.13-4.98,11.13-11.13S26.88,0.4,20.73,0.4z
		 M20.73,20.26c-4.82,0-8.73-3.91-8.73-8.73s3.91-8.73,8.73-8.73s8.73,3.91,8.73,8.73S25.55,20.26,20.73,20.26z"/>
	<path class="st1" d="M12.13,16.72L1.62,27.19c-1.31,1.31-1.66,3.08-0.78,3.96s2.66,0.54,3.97-0.77l10.51-10.47L12.13,16.72z"/>
	<path class="st1" d="M17.11,5.77c0,0,3.35-2.53,7.29,0c0,0,0.52,0.28,0.87-0.24s-0.28-0.87-0.28-0.87s-4.18-2.75-8.39,0
		c0,0-0.71,0.37-0.37,0.93C16.56,6.15,17.11,5.77,17.11,5.77z"/>
</g>
<g>
	<circle class="st2" cx="26.59" cy="28.83" r="2.78"/>
	<circle class="st2" cx="13.01" cy="28.83" r="2.78"/>
	<path class="st2" d="M1.16,0.36c0,0-0.99,0-0.99,1.26c0,1.13,0.99,1.13,0.99,1.13h5.76l2.58,14.3c0,0,0.2,0.89,0.2,1.32
		c0,0.53-1.38,2.46-1.19,3.64c0,0,0.2,2.22,2.25,2.45h18.6c0,0,0.93-0.02,0.99-0.93c0.1-1.32-0.99-1.26-0.99-1.26H11.69
		c0,0-1.2,0.07-0.63-1.19l1.03-2.52H28.9c0,0,1.08,0.09,1.32-1.85c0.25-2.03,1.89-11.06,1.89-11.06s0.25-1.34-0.96-1.32H9.67
		L9.01,1.39c0,0-0.2-1.06-1.19-1.03H1.16z"/>
</g>
<g class="st0">
	<path class="st1" d="M17.38,31.38c-0.65,0-1.29,0-1.94,0c-0.1-0.02-0.2-0.04-0.29-0.05c-0.76-0.12-1.54-0.18-2.29-0.36
		c-3.47-0.82-6.35-2.61-8.56-5.4c-2.95-3.72-4-7.94-3.14-12.61c0.48-2.61,1.6-4.92,3.31-6.95c2.43-2.88,5.5-4.69,9.22-5.35
		c0.54-0.1,1.09-0.16,1.64-0.24c0.67,0,1.33,0,2,0c0.51,0.06,1.02,0.11,1.52,0.19c3.78,0.66,6.96,2.44,9.4,5.4
		c3.02,3.67,4.16,7.89,3.35,12.59c-0.61,3.56-2.33,6.53-5.03,8.92c-2.18,1.92-4.7,3.14-7.57,3.63
		C18.45,31.24,17.91,31.31,17.38,31.38z M14.13,4.15c-0.34,1.22-0.7,2.39-1,3.58c-0.31,1.19-0.52,2.41-0.65,3.65
		c2.68,0.44,5.32,0.33,7.98,0c-0.26-2.49-0.86-4.87-1.71-7.24C17.26,3.86,15.69,3.81,14.13,4.15z M20.6,14.48
		c-2.85,0.45-5.67,0.45-8.49,0.01c0,0.79-0.02,1.53,0.01,2.28c0.04,1.04,0.12,2.07,0.19,3.1c0.01,0.17,0.05,0.31,0.27,0.32
		c0.46,0.03,0.92,0.09,1.38,0.12c2.1,0.13,4.19,0.12,6.28-0.12c0.19-0.02,0.27-0.1,0.28-0.28c0.05-1.32,0.12-2.63,0.16-3.95
		C20.69,15.49,20.63,15.01,20.6,14.48z M4.86,12.08c-0.3,0.94-0.53,1.92-0.61,2.94c-0.07,1,0,1.99,0.19,2.97
		c0.02,0.12,0.14,0.28,0.25,0.31c0.98,0.32,1.97,0.63,2.96,0.91c0.42,0.12,0.85,0.19,1.23,0.27c-0.04-1.99-0.08-3.95-0.11-5.89
		C7.5,13.1,6.19,12.6,4.86,12.08z M27.73,11.98c-0.65,0.31-1.26,0.63-1.9,0.9c-0.64,0.27-1.31,0.49-1.9,0.7
		c-0.04,1.98-0.08,3.94-0.12,5.9c0.08-0.01,0.19-0.02,0.29-0.05c1.28-0.39,2.55-0.77,3.83-1.17c0.09-0.03,0.19-0.17,0.21-0.27
		c0.07-0.35,0.1-0.7,0.14-1.05C28.48,15.24,28.2,13.58,27.73,11.98z M19.97,23.39c-2.41,0.28-4.74,0.24-7.07,0
		c0.01,0.1,0,0.15,0.02,0.19c0.4,1.3,0.79,2.59,1.2,3.88c0.03,0.1,0.19,0.19,0.3,0.22c1.38,0.31,2.76,0.24,4.14,0.01
		c0.18-0.03,0.28-0.12,0.33-0.29c0.16-0.56,0.34-1.11,0.49-1.68C19.58,24.97,19.76,24.21,19.97,23.39z M9.37,10.74
		c0.33-1.84,0.72-3.63,1.42-5.41C8.78,6.31,7.33,7.77,6.15,9.6C7.19,10.15,8.28,10.41,9.37,10.74z M26.55,9.6
		c-1.15-1.82-2.61-3.23-4.4-4.2c0.45,1.71,0.91,3.44,1.38,5.22C24.5,10.29,25.51,9.95,26.55,9.6z M5.92,21.75
		c1.19,2.06,2.75,3.63,4.78,4.68c-0.29-1.1-0.6-2.19-0.87-3.29c-0.05-0.22-0.16-0.29-0.34-0.33c-0.68-0.17-1.36-0.35-2.03-0.54
		C6.96,22.11,6.47,21.93,5.92,21.75z M26.76,21.78c-0.07-0.01-0.09-0.02-0.11-0.01c-1.09,0.35-2.18,0.7-3.27,1.04
		c-0.18,0.05-0.22,0.17-0.26,0.32c-0.11,0.5-0.23,1-0.35,1.49c-0.14,0.55-0.29,1.1-0.45,1.71C24.29,25.24,25.69,23.69,26.76,21.78z"
		/>
</g>
<g class="st0">
	<path class="st1" d="M17.83,21.91c-0.7,0.81-1.49,1.47-2.37,1.96c-0.87,0.49-1.75,0.74-2.63,0.74c-0.96,0-1.9-0.28-2.81-0.85
		c-0.91-0.56-1.65-1.43-2.22-2.6s-0.85-2.46-0.85-3.85c0-1.72,0.44-3.45,1.33-5.18c0.88-1.73,1.98-3.03,3.29-3.89s2.59-1.3,3.82-1.3
		c0.94,0,1.84,0.25,2.7,0.74s1.59,1.24,2.21,2.25l0.55-2.52h2.91l-2.34,10.91c-0.33,1.52-0.49,2.36-0.49,2.52
		c0,0.29,0.11,0.54,0.33,0.76c0.22,0.21,0.49,0.32,0.8,0.32c0.57,0,1.33-0.33,2.26-0.99c1.24-0.87,2.21-2.03,2.94-3.49
		c0.72-1.46,1.08-2.96,1.08-4.51c0-1.81-0.46-3.5-1.39-5.07s-2.31-2.83-4.15-3.77s-3.87-1.41-6.09-1.41c-2.54,0-4.85,0.59-6.95,1.78
		S6.04,7.35,4.88,9.57c-1.15,2.22-1.73,4.59-1.73,7.13c0,2.66,0.58,4.94,1.73,6.86s2.82,3.34,5.01,4.25
		c2.18,0.92,4.6,1.37,7.26,1.37c2.84,0,5.22-0.48,7.14-1.43s3.35-2.11,4.31-3.48h2.94c-0.55,1.14-1.5,2.3-2.85,3.48
		c-1.34,1.18-2.94,2.12-4.8,2.81c-1.85,0.69-4.09,1.03-6.7,1.03c-2.41,0-4.63-0.31-6.66-0.93s-3.76-1.55-5.2-2.79
		c-1.43-1.24-2.51-2.67-3.24-4.28c-0.91-2.05-1.37-4.26-1.37-6.63c0-2.64,0.54-5.16,1.63-7.56c1.32-2.94,3.2-5.19,5.63-6.75
		s5.39-2.34,8.85-2.34c2.69,0,5.1,0.55,7.24,1.65s3.83,2.74,5.07,4.92c1.05,1.88,1.58,3.91,1.58,6.11c0,3.14-1.11,5.93-3.32,8.37
		c-1.97,2.19-4.13,3.28-6.47,3.28c-0.75,0-1.35-0.11-1.81-0.34s-0.8-0.55-1.02-0.98C18,23.04,17.89,22.57,17.83,21.91z M9.96,17.5
		c0,1.49,0.35,2.64,1.06,3.46c0.7,0.82,1.51,1.24,2.42,1.24c0.61,0,1.25-0.18,1.92-0.54s1.31-0.9,1.93-1.62
		c0.61-0.72,1.11-1.62,1.5-2.72c0.39-1.1,0.59-2.2,0.59-3.31c0-1.47-0.37-2.62-1.1-3.43s-1.62-1.22-2.67-1.22
		c-0.69,0-1.35,0.18-1.96,0.53c-0.61,0.35-1.21,0.92-1.78,1.7s-1.04,1.73-1.38,2.85C10.13,15.55,9.96,16.57,9.96,17.5z"/>
</g>
</svg>
