<?xml version="1.0" encoding="utf-8"?>
<!-- Generator: Adobe Illustrator 16.0.0, SVG Export Plug-In . SVG Version: 6.00 Build 0)  -->
<!DOCTYPE svg PUBLIC "-//W3C//DTD SVG 1.1//EN" "http://www.w3.org/Graphics/SVG/1.1/DTD/svg11.dtd">
<svg version="1.1" id="Layer_1" xmlns="http://www.w3.org/2000/svg" xmlns:xlink="http://www.w3.org/1999/xlink" x="0px" y="0px"
	 width="252px" height="252px" viewBox="0 0 252 252" enable-background="new 0 0 252 252" xml:space="preserve">
<g>
	<circle fill="none" stroke="#FFFFFF" stroke-width="2.9739" stroke-miterlimit="10" cx="126.171" cy="126.354" r="123.12"/>
	
		<polyline fill="none" stroke="#FFFFFF" stroke-width="11.3727" stroke-linecap="round" stroke-linejoin="round" stroke-miterlimit="10" points="
		31.463,125.416 126.171,30.708 220.877,125.416 	"/>
	
		<path fill="#FDFDFE" stroke="#FFFFFF" stroke-width="9.8383" stroke-linecap="round" stroke-linejoin="round" stroke-miterlimit="10" d="
		M192.309,115.528l-66.138-66.139l-66.053,66.052h0.001v91.616h49.873l-0.001-35.244h32.536v35.244H192.4v-91.616L192.309,115.528z
		 M126.26,144.137c-14.146,0-25.612-11.466-25.612-25.611c0-14.146,11.466-25.612,25.612-25.612
		c14.145,0,25.613,11.467,25.613,25.612C151.873,132.67,140.404,144.137,126.26,144.137z"/>
	
		<line fill="none" stroke="#FFFFFF" stroke-width="3.9353" stroke-linecap="round" stroke-linejoin="round" stroke-miterlimit="10" x1="100.648" y1="122.525" x2="151.873" y2="122.525"/>
	
		<line fill="none" stroke="#FFFFFF" stroke-width="3.9353" stroke-linecap="round" stroke-linejoin="round" stroke-miterlimit="10" x1="126.26" y1="92.912" x2="126.26" y2="144.139"/>
</g>
</svg>
